<?xml version="1.0" encoding="iso-8859-1"?>
<!-- Generator: Adobe Illustrator 19.0.0, SVG Export Plug-In . SVG Version: 6.00 Build 0)  -->
<svg version="1.1" id="Layer_1" xmlns="http://www.w3.org/2000/svg" xmlns:xlink="http://www.w3.org/1999/xlink" x="0px" y="0px"
	 viewBox="0 0 512 512" style="enable-background:new 0 0 512 512;" xml:space="preserve">
<g>
	<g>
		<g>
			<path d="M110.933,426.667H42.667c-4.719,0-8.533,3.823-8.533,8.533s3.814,8.533,8.533,8.533h68.267
				c4.719,0,8.533-3.823,8.533-8.533S115.652,426.667,110.933,426.667z"/>
			<path d="M110.933,460.8H42.667c-4.719,0-8.533,3.823-8.533,8.533s3.814,8.533,8.533,8.533h68.267
				c4.719,0,8.533-3.823,8.533-8.533S115.652,460.8,110.933,460.8z"/>
			<path d="M162.133,221.867H332.8c42.351,0,76.8-34.458,76.8-76.8s-34.449-76.8-76.8-76.8c-17.8,0-35.149,6.229-48.87,17.545
				c-3.627,2.995-4.147,8.38-1.143,12.006c2.995,3.635,8.363,4.164,12.015,1.161c10.658-8.798,24.158-13.645,37.999-13.645
				c32.93,0,59.733,26.795,59.733,59.733c0,32.939-26.803,59.733-59.733,59.733H162.133c-23.526,0-42.667-19.14-42.667-42.667
				c0-18.662,12.476-35.448,30.336-40.841c4.301-1.297,6.852-5.709,5.845-10.095c-1.357-5.871-2.048-11.699-2.048-17.331
				c0-42.342,34.449-76.8,76.8-76.8c26.069,0,50.142,13.056,64.393,34.927c2.569,3.959,7.876,5.06,11.81,2.492
				c3.951-2.577,5.06-7.868,2.492-11.81C291.678,15.957,262.255,0,230.4,0c-51.755,0-93.867,42.112-93.867,93.867
				c0,4.531,0.358,9.148,1.067,13.79c-21.333,9.532-35.2,30.558-35.2,54.477C102.4,195.072,129.203,221.867,162.133,221.867z"/>
			<path d="M76.8,324.267c4.719,0,8.533-3.823,8.533-8.533v-25.6h146.645c2.569,7.228,8.252,12.919,15.488,15.488v10.112
				c0,4.71,3.814,8.533,8.533,8.533s8.533-3.823,8.533-8.533V305.63c7.236-2.577,12.919-8.269,15.488-15.497h146.654v25.6
				c0,4.71,3.814,8.533,8.533,8.533s8.533-3.823,8.533-8.533V281.6c0-4.71-3.814-8.533-8.533-8.533H280.021
				c-2.569-7.228-8.252-12.919-15.488-15.497v-10.103c0-4.71-3.814-8.533-8.533-8.533s-8.533,3.823-8.533,8.533v10.103
				c-7.236,2.577-12.919,8.269-15.488,15.497H76.8c-4.719,0-8.533,3.823-8.533,8.533v34.133
				C68.267,320.444,72.081,324.267,76.8,324.267z M256,273.067c4.71,0,8.533,3.831,8.533,8.533c0,4.702-3.823,8.533-8.533,8.533
				s-8.533-3.831-8.533-8.533C247.467,276.898,251.29,273.067,256,273.067z"/>
			<path d="M42.667,409.6H76.8c4.719,0,8.533-3.823,8.533-8.533s-3.814-8.533-8.533-8.533H42.667c-4.719,0-8.533,3.823-8.533,8.533
				S37.948,409.6,42.667,409.6z"/>
			<path d="M136.533,341.333H17.067C7.654,341.333,0,348.988,0,358.4v136.533C0,504.346,7.654,512,17.067,512h119.467
				c9.412,0,17.067-7.654,17.067-17.067V358.4C153.6,348.988,145.946,341.333,136.533,341.333z M17.067,494.933V358.4h119.467
				l0.009,136.533H17.067z"/>
			<path d="M290.133,460.8h-68.267c-4.719,0-8.533,3.823-8.533,8.533s3.814,8.533,8.533,8.533h68.267
				c4.719,0,8.533-3.823,8.533-8.533S294.852,460.8,290.133,460.8z"/>
			<path d="M469.333,426.667h-68.267c-4.719,0-8.533,3.823-8.533,8.533s3.814,8.533,8.533,8.533h68.267
				c4.719,0,8.533-3.823,8.533-8.533S474.052,426.667,469.333,426.667z"/>
			<path d="M469.333,460.8h-68.267c-4.719,0-8.533,3.823-8.533,8.533s3.814,8.533,8.533,8.533h68.267
				c4.719,0,8.533-3.823,8.533-8.533S474.052,460.8,469.333,460.8z"/>
			<path d="M494.933,341.333H375.467c-9.412,0-17.067,7.654-17.067,17.067v136.533c0,9.412,7.654,17.067,17.067,17.067h119.467
				c9.412,0,17.067-7.654,17.067-17.067V358.4C512,348.988,504.346,341.333,494.933,341.333z M375.467,494.933V358.4h119.467
				l0.009,136.533H375.467z"/>
			<path d="M221.867,409.6H256c4.719,0,8.533-3.823,8.533-8.533s-3.814-8.533-8.533-8.533h-34.133c-4.719,0-8.533,3.823-8.533,8.533
				S217.148,409.6,221.867,409.6z"/>
			<path d="M290.133,426.667h-68.267c-4.719,0-8.533,3.823-8.533,8.533s3.814,8.533,8.533,8.533h68.267
				c4.719,0,8.533-3.823,8.533-8.533S294.852,426.667,290.133,426.667z"/>
			<path d="M401.067,409.6H435.2c4.719,0,8.533-3.823,8.533-8.533s-3.814-8.533-8.533-8.533h-34.133
				c-4.719,0-8.533,3.823-8.533,8.533S396.348,409.6,401.067,409.6z"/>
			<path d="M315.733,341.333H196.267c-9.412,0-17.067,7.654-17.067,17.067v136.533c0,9.412,7.654,17.067,17.067,17.067h119.467
				c9.412,0,17.067-7.654,17.067-17.067V358.4C332.8,348.988,325.146,341.333,315.733,341.333z M196.267,494.933V358.4h119.467
				l0.009,136.533H196.267z"/>
		</g>
	</g>
</g>
<g>
</g>
<g>
</g>
<g>
</g>
<g>
</g>
<g>
</g>
<g>
</g>
<g>
</g>
<g>
</g>
<g>
</g>
<g>
</g>
<g>
</g>
<g>
</g>
<g>
</g>
<g>
</g>
<g>
</g>
</svg>
